# xmcd
#
# Track frame offsets:
# 150
# 15644
# 34120
# 45349
# 56769
# 59243
# 75141
# 88618
# 98075
# 115226
# 130570
# 149833
# 162684
# 178416
# 199563
# 218326
#
# Disc length: 3178 seconds
#
#
# Revision: 0
# Processed by: cddbd v1.5.2PL0 Copyright (c) Steve Scherf et al.
# Submitted via: FreeRIP 2.945 
#
DISCID=db0c6810
DTITLE=Swollen Members - Dagger Mouth
DYEAR=2011
DGENRE=Hip-Hop
TTITLE0=Do or Die
TTITLE1=The Shining
TTITLE2=Night Vision
TTITLE3=Mr. Impossible
TTITLE4=Calming of the Beast (interlude)
TTITLE5=Moonshine
TTITLE6=House of Sin
TTITLE7=Chemical Imbalance
TTITLE8=Fire
TTITLE9=Fresh Air
TTITLE10=War Money
TTITLE11=The Predator
TTITLE12=Devil
TTITLE13=White Python - Black Tarantula - Sound of the Drum
TTITLE14=Electric Chair
TTITLE15=Bring Me Down (Swollen Mix)(feat. Saigon)
EXTD=
EXTT0=
EXTT1=
EXTT2=
EXTT3=
EXTT4=
EXTT5=
EXTT6=
EXTT7=
EXTT8=
EXTT9=
EXTT10=
EXTT11=
EXTT12=
EXTT13=
EXTT14=
EXTT15=
PLAYORDER=
